<?xml version="1.0" standalone="no"?>
<!DOCTYPE svg PUBLIC "-//W3C//DTD SVG 20010904//EN"
 "http://www.w3.org/TR/2001/REC-SVG-20010904/DTD/svg10.dtd">
<svg version="1.0" xmlns="http://www.w3.org/2000/svg"
 width="500.000000pt" height="150.000000pt" viewBox="0 0 500.000000 150.000000"
 preserveAspectRatio="xMidYMid meet">

<g transform="translate(0.000000,150.000000) scale(0.100000,-0.100000)"
fill="#000000" stroke="none">
<path d="M716 960 c-125 -22 -244 -117 -305 -243 -17 -34 -31 -57 -31 -52 -4
34 -19 -41 -19 -94 -1 -56 4 -76 40 -148 46 -94 65 -109 22 -17 -24 51 -28 71
-28 149 1 117 26 184 102 265 125 136 319 172 472 89 61 -32 82 -33 27 -1 -80
47 -191 68 -280 52z"/>
<path d="M1100 875 c13 -14 26 -25 28 -25 3 0 -5 11 -18 25 -13 14 -26 25 -28
25 -3 0 5 -11 18 -25z"/>
<path d="M1055 850 c10 -11 20 -20 23 -20 3 0 -3 9 -13 20 -10 11 -20 20 -23
20 -3 0 3 -9 13 -20z"/>
<path d="M2465 861 c-77 -20 -140 -76 -177 -156 -18 -41 -23 -68 -23 -145 0
-82 4 -103 26 -150 61 -129 185 -186 320 -147 115 34 179 128 187 272 10 193
-84 320 -245 330 -32 2 -71 1 -88 -4z m135 -150 c55 -38 79 -148 51 -234 -38
-114 -175 -124 -228 -17 -39 76 -23 204 30 248 40 33 101 34 147 3z"/>
<path d="M3023 861 c-49 -13 -96 -44 -121 -82 -20 -29 -23 -44 -20 -101 3 -58
8 -72 33 -99 40 -41 68 -55 155 -75 106 -24 134 -60 85 -109 -41 -42 -136 -30
-193 25 l-24 22 -44 -43 -44 -43 26 -27 c62 -65 197 -94 297 -65 102 30 157
112 142 212 -12 80 -50 110 -185 143 -96 24 -110 33 -110 72 0 60 82 77 159
33 l45 -25 40 40 c39 39 39 41 22 60 -45 50 -183 82 -263 62z"/>
<path d="M3577 856 c-109 -30 -179 -132 -186 -268 -6 -146 41 -248 140 -303
47 -26 64 -30 134 -30 94 0 144 22 194 82 l30 37 -56 37 -56 38 -26 -28 c-75
-80 -193 -30 -221 93 -23 102 20 195 101 216 44 12 91 -3 123 -38 l18 -21 54
36 c30 20 54 39 54 42 0 13 -75 79 -107 95 -45 23 -138 29 -196 12z"/>
<path d="M1710 558 l0 -293 172 3 c95 1 187 7 205 13 17 6 48 28 67 50 32 34
36 45 36 92 0 49 -27 116 -47 117 -5 0 -16 7 -27 15 -18 14 -18 16 12 49 42
48 50 96 26 155 -14 33 -30 52 -59 68 -37 21 -52 23 -212 23 l-173 0 0 -292z
m288 166 c26 -18 29 -60 5 -86 -13 -14 -31 -18 -85 -18 l-68 0 0 60 0 60 63 0
c40 0 70 -5 85 -16z m-1 -225 c33 -12 43 -26 43 -61 0 -42 -32 -58 -117 -58
l-73 0 0 65 0 65 59 0 c33 0 72 -5 88 -11z"/>
<path d="M3970 558 l0 -293 70 0 70 0 0 118 0 117 100 0 100 0 0 -118 0 -117
70 0 70 0 0 293 0 292 -70 0 -69 0 -3 -107 -3 -108 -95 0 -95 0 -3 108 -3 107
-69 0 -70 0 0 -292z"/>
<path d="M641 768 c0 -43 2 -78 7 -78 4 0 6 24 4 52 -5 95 -9 104 -11 26z"/>
<path d="M1016 789 c16 -20 31 -34 33 -32 3 2 -10 18 -29 36 l-34 32 30 -36z"/>
<path d="M569 723 c-37 -57 -48 -88 -55 -148 -5 -42 -10 -53 -19 -45 -17 14
-2 -77 19 -118 15 -29 51 -62 68 -62 4 0 9 92 10 205 2 113 2 205 2 205 -1 0
-12 -17 -25 -37z m9 -240 l-3 -78 -19 40 c-31 63 -33 151 -5 216 l24 54 3 -77
c2 -43 2 -113 0 -155z"/>
<path d="M980 610 l0 -140 -36 -15 c-49 -20 -251 -21 -299 -1 l-35 15 0 -53
c0 -29 7 -67 16 -84 16 -32 11 -58 -8 -46 -7 4 -8 2 -4 -4 4 -7 14 -12 22 -12
11 0 14 16 14 75 l0 75 134 0 c74 0 141 3 150 6 12 5 15 -5 18 -48 l3 -53 28
40 c15 22 23 41 17 43 -12 4 -14 302 -1 302 5 0 14 -14 21 -30 7 -17 15 -28
18 -26 5 5 -45 96 -53 96 -3 0 -5 -63 -5 -140z"/>
<path d="M1197 730 c4 -14 7 -77 8 -142 0 -64 4 -111 8 -105 17 25 -7 -71 -30
-120 -38 -82 -113 -157 -200 -200 -66 -33 -86 -38 -176 -43 l-102 -7 83 -1
c251 -5 452 192 452 443 0 53 -23 155 -41 184 -8 12 -8 10 -2 -9z"/>
<path d="M1061 740 c-1 -3 8 -29 19 -58 23 -60 26 -137 7 -149 -8 -4 -20 -30
-27 -56 -7 -27 -23 -63 -34 -80 -38 -56 -41 -64 -19 -44 43 37 35 14 -12 -33
-60 -61 -45 -67 17 -7 104 101 131 254 69 390 -11 23 -20 40 -20 37z"/>
<path d="M647 633 c-10 -9 -9 -153 1 -153 4 0 6 34 4 76 l-4 75 141 -3 c78 -2
141 0 141 5 0 9 -274 10 -283 0z"/>
<path d="M332 555 c0 -16 2 -22 5 -12 2 9 2 23 0 30 -3 6 -5 -1 -5 -18z"/>
<path d="M460 321 c0 -5 5 -13 10 -16 6 -3 10 -2 10 4 0 5 -4 13 -10 16 -5 3
-10 2 -10 -4z"/>
<path d="M620 140 c8 -5 22 -9 30 -9 10 0 8 3 -5 9 -27 12 -43 12 -25 0z"/>
<path d="M678 123 c7 -3 16 -2 19 1 4 3 -2 6 -13 5 -11 0 -14 -3 -6 -6z"/>
</g>
</svg>
