<svg id="Livello_1" data-name="Livello 1" xmlns="http://www.w3.org/2000/svg" xmlns:xlink="http://www.w3.org/1999/xlink" viewBox="0 0 224.48 77.87"><defs><style>.cls-1{fill:#7d7068;}.cls-2{fill:url(#Sfumatura_senza_nome_3);}.cls-3{fill:url(#Sfumatura_senza_nome_3-2);}.cls-4{fill:url(#Sfumatura_senza_nome_3-3);}.cls-5{fill:url(#Sfumatura_senza_nome_3-4);}</style><linearGradient id="Sfumatura_senza_nome_3" x1="138.3" y1="288.58" x2="139.3" y2="288.58" gradientTransform="matrix(-24.5, 67.3, 67.3, 24.5, -16011.53, -16380.57)" gradientUnits="userSpaceOnUse"><stop offset="0" stop-color="#0891b4"/><stop offset="0.41" stop-color="#0891b4"/><stop offset="0.45" stop-color="#168eb0"/><stop offset="0.52" stop-color="#3d87a6"/><stop offset="0.6" stop-color="#6d7d9a"/><stop offset="0.63" stop-color="#787b95"/><stop offset="0.68" stop-color="#957488"/><stop offset="0.74" stop-color="#c46a73"/><stop offset="0.78" stop-color="#e46365"/><stop offset="0.81" stop-color="#e66365"/><stop offset="0.97" stop-color="#ec6464"/><stop offset="1" stop-color="#ec6464"/></linearGradient><linearGradient id="Sfumatura_senza_nome_3-2" x1="138.3" y1="288.92" x2="139.3" y2="288.92" xlink:href="#Sfumatura_senza_nome_3"/><linearGradient id="Sfumatura_senza_nome_3-3" x1="138.3" y1="288.75" x2="139.3" y2="288.75" xlink:href="#Sfumatura_senza_nome_3"/><linearGradient id="Sfumatura_senza_nome_3-4" x1="138.38" y1="288.74" x2="139.21" y2="288.74" xlink:href="#Sfumatura_senza_nome_3"/></defs><title>02_elica</title><path class="cls-1" d="M97.93,29.71c-.67-7.91-5.21-14.8-13.87-14.8-7.57,0-13.29,6.3-14.13,14.8ZM85.07,54.84c-11.94,0-21.7-9.16-21.7-22.61v-.17c0-12.53,8.83-22.62,20.85-22.62,12.87,0,20.18,10.51,20.18,22a3,3,0,0,1-3,3H69.93c.93,9.41,7.57,14.71,15.3,14.71a17.72,17.72,0,0,0,12.53-5.05,2.8,2.8,0,0,1,4.71,2,2.78,2.78,0,0,1-1,2.1,22.07,22.07,0,0,1-16.39,6.56"/><path class="cls-1" d="M112.08,3.28a3.24,3.24,0,1,1,6.47,0V51a3.17,3.17,0,0,1-3.19,3.29A3.23,3.23,0,0,1,112.08,51Z"/><path class="cls-1" d="M127,13.22a3.24,3.24,0,1,1,6.47,0V51a3.17,3.17,0,0,1-3.2,3.29A3.24,3.24,0,0,1,127,51Z"/><path class="cls-1" d="M140.71,32.31v-.17A22.59,22.59,0,0,1,179,15.75,3,3,0,0,1,180,18a3.11,3.11,0,0,1-3.11,3.11,3.34,3.34,0,0,1-2.1-.76c-3.11-2.86-6.64-5.21-11.86-5.21-8.82,0-15.55,7.48-15.55,16.81v.17c0,9.42,6.9,16.9,16,16.9,5,0,8.92-2.27,12.11-5.3a2.6,2.6,0,0,1,1.85-.83,3,3,0,0,1,2.94,2.94,2.9,2.9,0,0,1-.84,2,21.84,21.84,0,0,1-16.39,7,22.31,22.31,0,0,1-22.28-22.53"/><path class="cls-1" d="M218.35,37.86V33.65a45.53,45.53,0,0,0-12.78-1.85c-8.16,0-12.7,3.53-12.7,9V41c0,5.46,5,8.66,10.93,8.66,8,0,14.55-4.88,14.55-11.77m-32,3.36v-.17c0-9.16,7.57-14,18.59-14a46.15,46.15,0,0,1,13.36,1.85V27.35c0-7.82-4.79-11.86-12.94-11.86a27.1,27.1,0,0,0-11.27,2.44,3.25,3.25,0,0,1-1.18.25A2.88,2.88,0,0,1,190,15.41a3,3,0,0,1,1.77-2.69A34.25,34.25,0,0,1,206,9.78c6.14,0,10.85,1.6,14,4.79,2.94,2.94,4.45,7.15,4.45,12.69v23.8a3.07,3.07,0,0,1-3.11,3.2,3,3,0,0,1-3.11-3v-4a19,19,0,0,1-15.72,7.49c-8.07,0-16.23-4.63-16.23-13.54"/><path class="cls-2" d="M4.65,25.39a.61.61,0,0,0,1,.31h0c2.32-1.2,4.67-2.32,7.07-3.36a45.18,45.18,0,0,0,11.13-6.89,18.42,18.42,0,0,0,3.55-4,4.58,4.58,0,0,0,.55-4.59,5.44,5.44,0,0,0-.28-.66A8.23,8.23,0,0,0,24.69,3a.65.65,0,0,0-.38-.11.47.47,0,0,0-.17,0,.81.81,0,0,0-.32.16A75.77,75.77,0,0,1,17,8.63a76.37,76.37,0,0,1-9.7,5.95l-.37.2a7.15,7.15,0,0,0-3,9C4.13,24.35,4.38,24.87,4.65,25.39Z"/><path class="cls-3" d="M32.85,43.92a.24.24,0,0,0-.13,0c-.17,0-.27.19-.13.36a2.76,2.76,0,0,1,.53,3,5.24,5.24,0,0,1-2.37,3,27.63,27.63,0,0,1-4.11,2.05A54.69,54.69,0,0,0,20.83,55a11.49,11.49,0,0,0-2.51,1.82,4.9,4.9,0,0,0,.16,7.29.44.44,0,0,0,.67,0A42.92,42.92,0,0,1,29,58.17a37,37,0,0,0,5.41-2.89,4.76,4.76,0,0,0,2.38-3.82A7.54,7.54,0,0,0,32.85,43.92Z"/><path class="cls-4" d="M32.71,13.11a.63.63,0,0,0-.27-.08.41.41,0,0,0-.27.72,6.41,6.41,0,0,1,1.09,6.16,10.64,10.64,0,0,1-4.84,6,55,55,0,0,1-8.34,4.17A109.56,109.56,0,0,0,8.25,35.62a23.5,23.5,0,0,0-5.11,3.69,10,10,0,0,0,.32,14.84.91.91,0,0,0,1.37,0A87.78,87.78,0,0,1,24.94,42.1a75.46,75.46,0,0,0,11-5.87,10.73,10.73,0,0,0,4.83-7.77A15.35,15.35,0,0,0,32.71,13.11Z"/><path class="cls-5" d="M6.92,14.78l.37-.2A76.37,76.37,0,0,0,17,8.63a75.77,75.77,0,0,0,6.83-5.54.81.81,0,0,1,.32-.16.47.47,0,0,1,.17,0,.65.65,0,0,1,.38.11,8.23,8.23,0,0,1,2.94,3.2,5.44,5.44,0,0,1,.28.66,4.58,4.58,0,0,1-.55,4.59,18.42,18.42,0,0,1-3.55,4,45.18,45.18,0,0,1-11.13,6.89c-2.4,1-4.75,2.16-7.07,3.36h0a.61.61,0,0,1-1-.31c-.27-.52-.52-1-.76-1.58A7.15,7.15,0,0,1,6.92,14.78Zm29.9,36.68a4.76,4.76,0,0,1-2.38,3.82A37,37,0,0,1,29,58.17a42.92,42.92,0,0,0-9.88,5.93.44.44,0,0,1-.67,0,4.9,4.9,0,0,1-.16-7.29A11.49,11.49,0,0,1,20.83,55a54.69,54.69,0,0,1,5.81-2.71,27.63,27.63,0,0,0,4.11-2.05,5.24,5.24,0,0,0,2.37-3,2.76,2.76,0,0,0-.53-3c-.14-.17,0-.36.13-.36a.24.24,0,0,1,.13,0A7.54,7.54,0,0,1,36.82,51.46ZM36,36.23a75.46,75.46,0,0,1-11,5.87A87.78,87.78,0,0,0,4.83,54.18a.91.91,0,0,1-1.37,0,10,10,0,0,1-.32-14.84,23.5,23.5,0,0,1,5.11-3.69A109.56,109.56,0,0,1,20.08,30.1a55,55,0,0,0,8.34-4.17,10.64,10.64,0,0,0,4.84-6,6.41,6.41,0,0,0-1.09-6.16.41.41,0,0,1,.27-.72.63.63,0,0,1,.27.08,15.35,15.35,0,0,1,8.07,15.35A10.73,10.73,0,0,1,36,36.23Z"/><path class="cls-1" d="M141.91,74.65a2.19,2.19,0,0,0,2.46,2c1.8,0,3.27-1.12,3.27-2.71V73a9.71,9.71,0,0,0-2.87-.43c-1.84,0-2.86.81-2.86,2.09m-.17-5.11-.43-1.23a7.94,7.94,0,0,1,3.55-.83c2.67,0,4.16,1.4,4.16,4v6.13h-1.4V76.13a4.24,4.24,0,0,1-3.53,1.73c-1.82,0-3.65-1-3.65-3.15s1.7-3.26,4.18-3.26a10.2,10.2,0,0,1,3,.43v-.35c0-1.8-1.07-2.73-2.91-2.73a6.65,6.65,0,0,0-3,.74"/><path class="cls-1" d="M152.43,77.64H151v-10h1.45v2.61a4.19,4.19,0,0,1,4-2.79v1.61h-.12c-2.14,0-3.88,1.57-3.88,4.6Z"/><path class="cls-1" d="M157.62,67.62h1.46v10h-1.46Zm-.09-3.85h1.66v1.65h-1.66Z"/><path class="cls-1" d="M162.05,74.65c0,1.28,1.13,2,2.46,2,1.79,0,3.27-1.12,3.27-2.71V73a9.71,9.71,0,0,0-2.87-.43c-1.84,0-2.86.81-2.86,2.09m-.17-5.11-.44-1.23a8,8,0,0,1,3.56-.83c2.67,0,4.16,1.4,4.16,4v6.13h-1.4V76.13a4.24,4.24,0,0,1-3.53,1.73c-1.82,0-3.66-1-3.66-3.15s1.71-3.26,4.18-3.26a10.22,10.22,0,0,1,3,.43v-.35c0-1.8-1.08-2.73-2.91-2.73a6.65,6.65,0,0,0-3,.74"/><path class="cls-1" d="M177.09,77.64h-1.45v-10h1.45v1.74a3.7,3.7,0,0,1,3.35-2c2.37,0,3.75,1.63,3.75,4v6.22h-1.46V71.78c0-1.86-1-3-2.7-3a2.92,2.92,0,0,0-2.94,3.14Z"/><path class="cls-1" d="M193.09,67.61h1.43v10h-1.43V75.9a3.74,3.74,0,0,1-3.35,2c-2.37,0-3.75-1.64-3.75-4V67.61h1.46v5.86c0,1.86,1,3,2.7,3a2.93,2.93,0,0,0,2.94-3.15Z"/><path class="cls-1" d="M201.11,68.72a3.64,3.64,0,0,0-3.57,3.9,3.73,3.73,0,0,0,3.61,3.92,3.65,3.65,0,0,0,3.59-3.88,3.75,3.75,0,0,0-3.63-3.94m0,9.15A5.08,5.08,0,0,1,196,72.66a5.1,5.1,0,1,1,5.07,5.21"/><polygon class="cls-1" points="214.4 67.61 215.97 67.61 211.71 77.72 210.43 77.72 206.19 67.61 207.79 67.61 211.09 75.93 214.4 67.61"/><path class="cls-1" d="M217.37,74.65c0,1.28,1.13,2,2.46,2,1.8,0,3.27-1.12,3.27-2.71V73a9.71,9.71,0,0,0-2.87-.43c-1.84,0-2.86.81-2.86,2.09m-.17-5.11-.43-1.23a7.94,7.94,0,0,1,3.55-.83c2.67,0,4.16,1.4,4.16,4v6.13h-1.39V76.13a4.28,4.28,0,0,1-3.54,1.73c-1.82,0-3.65-1-3.65-3.15s1.7-3.26,4.18-3.26a10.27,10.27,0,0,1,3,.43v-.35c0-1.8-1.08-2.73-2.92-2.73a6.65,6.65,0,0,0-3,.74"/></svg>