<?xml version="1.0" standalone="no"?>
<!DOCTYPE svg PUBLIC "-//W3C//DTD SVG 20010904//EN"
 "http://www.w3.org/TR/2001/REC-SVG-20010904/DTD/svg10.dtd">
<svg version="1.0" xmlns="http://www.w3.org/2000/svg"
 width="600.000000pt" height="600.000000pt" viewBox="0 0 600.000000 600.000000"
 preserveAspectRatio="xMidYMid meet">
<metadata>
Created by potrace 1.16, written by Peter Selinger 2001-2019
</metadata>
<g transform="translate(0.000000,600.000000) scale(0.100000,-0.100000)"
fill="#000000" stroke="none">
<path d="M2770 5994 c-19 -2 -78 -9 -130 -15 -738 -84 -1455 -472 -1937 -1049
-373 -446 -601 -968 -685 -1570 -17 -127 -17 -593 0 -720 84 -602 312 -1124
685 -1570 432 -518 1059 -888 1715 -1014 230 -44 306 -51 582 -51 340 0 548
29 842 114 979 287 1752 1060 2039 2039 85 294 114 502 114 842 0 276 -7 352
-51 582 -130 675 -520 1320 -1061 1755 -424 341 -923 555 -1483 639 -100 14
-547 28 -630 18z m470 -54 c1020 -92 1917 -688 2372 -1576 410 -800 448 -1688
106 -2504 -425 -1014 -1370 -1700 -2478 -1800 -838 -75 -1720 249 -2325 855
-546 545 -865 1315 -865 2085 0 770 319 1540 865 2085 605 606 1487 930 2325
855z"/>
<path d="M1060 3040 l0 -1420 255 0 255 0 0 357 0 357 273 363 c149 199 274
362 278 363 3 0 88 -199 188 -442 101 -244 235 -568 299 -720 l115 -278 283 0
c156 0 284 2 284 4 0 2 -176 426 -391 942 -215 517 -391 946 -391 954 -1 13
187 278 570 805 l94 130 -258 3 c-200 2 -260 -1 -265 -10 -4 -7 -48 -67 -97
-133 -118 -160 -552 -750 -738 -1005 -82 -113 -168 -233 -189 -267 -22 -35
-43 -63 -47 -63 -5 0 -8 333 -8 740 l0 740 -255 0 -255 0 0 -1420z"/>
<path d="M4410 3695 l0 -445 -425 0 -425 0 0 -195 0 -195 425 0 425 0 2 -442
3 -443 198 -3 197 -2 0 445 0 445 425 0 425 0 0 195 0 195 -425 0 -425 0 0
445 0 445 -200 0 -200 0 0 -445z"/>
</g>
</svg>
