<?xml version="1.0" standalone="no"?>
<!DOCTYPE svg PUBLIC "-//W3C//DTD SVG 20010904//EN"
 "http://www.w3.org/TR/2001/REC-SVG-20010904/DTD/svg10.dtd">
<svg version="1.0" xmlns="http://www.w3.org/2000/svg"
 width="978.000000pt" height="184.000000pt" viewBox="0 0 978.000000 184.000000"
 preserveAspectRatio="xMidYMid meet">

<g transform="translate(0.000000,184.000000) scale(0.100000,-0.100000)"
fill="#000000" stroke="none">
<path d="M500 1834 c-153 -24 -248 -70 -340 -163 -39 -39 -78 -93 -98 -131
-57 -115 -62 -158 -62 -626 0 -387 2 -427 20 -498 47 -185 173 -320 360 -388
l65 -23 735 0 c731 0 735 0 805 22 166 52 299 183 357 352 23 65 23 72 23 541
0 470 0 476 -23 542 -60 172 -195 301 -377 356 -43 14 -152 16 -745 18 -382 1
-706 0 -720 -2z m1512 -157 c127 -62 212 -174 237 -311 15 -80 15 -812 0 -892
-25 -137 -110 -249 -237 -311 l-76 -38 -751 0 -751 0 -76 38 c-129 63 -215
178 -237 318 -14 81 -14 793 -1 873 20 122 101 247 199 304 110 64 72 62 882
59 l735 -2 76 -38z"/>
<path d="M689 1404 c-39 -82 -121 -257 -182 -389 l-111 -240 -4 -95 c-3 -80 0
-104 18 -153 29 -76 112 -167 188 -204 52 -25 67 -28 167 -28 101 0 114 2 163
28 76 40 134 97 173 169 33 60 34 67 34 168 0 92 -4 113 -27 165 -65 148 -330
711 -338 719 -6 6 -37 -49 -81 -140z"/>
<path d="M1554 1453 c-208 -444 -306 -661 -315 -699 -6 -24 -9 -76 -7 -116 7
-132 79 -243 200 -309 61 -33 67 -34 173 -34 100 0 115 3 166 28 67 32 152
119 180 182 30 69 41 150 28 220 -7 38 -49 144 -114 285 -144 315 -253 540
-260 540 -3 0 -26 -44 -51 -97z m140 -565 c79 -194 87 -232 62 -292 -35 -83
-150 -120 -231 -74 -52 30 -88 97 -82 153 5 51 159 428 168 412 4 -7 41 -96
83 -199z"/>
<path d="M2835 1266 c-147 -46 -225 -167 -225 -345 0 -159 66 -280 182 -332
52 -24 56 -24 389 -24 l335 0 59 30 c162 83 221 327 125 522 -38 76 -96 124
-181 147 -73 21 -620 22 -684 2z m603 -196 c93 -57 93 -243 0 -300 -31 -18
-50 -20 -262 -20 -212 0 -231 1 -261 20 -56 34 -85 125 -66 198 13 46 53 99
85 112 12 5 122 9 246 9 209 1 227 -1 258 -19z"/>
<path d="M5503 1262 c-154 -54 -219 -167 -211 -366 3 -91 7 -109 37 -170 24
-49 45 -76 79 -101 87 -63 112 -66 468 -63 315 3 320 3 368 27 65 33 113 82
145 150 24 51 26 67 26 181 0 114 -2 130 -26 180 -32 67 -87 121 -154 152 -48
22 -60 23 -365 25 -283 3 -320 1 -367 -15z m603 -188 c53 -25 79 -76 79 -154
0 -51 -5 -73 -23 -103 -41 -64 -53 -67 -309 -67 -211 0 -230 2 -261 20 -68 42
-92 159 -49 240 40 75 58 80 310 80 180 0 225 -3 253 -16z"/>
<path d="M3880 920 l0 -350 120 0 120 0 0 227 c0 190 2 225 13 213 8 -8 76
-111 152 -227 l139 -213 105 0 106 0 150 228 150 227 3 -227 2 -228 120 0 120
0 0 350 0 350 -179 0 -179 0 -32 -52 c-49 -82 -254 -387 -260 -388 -6 0 -169
238 -240 352 l-55 88 -177 0 -178 0 0 -350z"/>
<path d="M6530 920 l0 -350 120 0 120 0 0 350 0 350 -120 0 -120 0 0 -350z"/>
<path d="M6920 920 l0 -350 120 0 120 0 0 140 0 139 214 -139 213 -140 192 2
192 3 -270 185 c-149 102 -271 188 -271 192 0 4 105 73 233 154 127 80 236
150 242 155 5 5 -72 9 -181 9 l-189 0 -185 -115 -185 -115 -3 115 -3 115 -119
0 -120 0 0 -350z"/>
<path d="M8020 920 l0 -350 120 0 120 0 0 350 0 350 -120 0 -120 0 0 -350z"/>
<path d="M8410 920 l0 -350 120 0 120 0 0 105 0 105 243 0 c284 0 271 5 289
-106 16 -108 10 -104 149 -104 l119 0 -14 23 c-7 12 -16 54 -19 94 -7 90 -34
152 -82 188 l-36 28 26 16 c39 24 67 92 68 164 1 95 -35 146 -122 175 -23 8
-162 12 -447 12 l-414 0 0 -350z m736 146 c18 -26 18 -56 -2 -84 -15 -22 -18
-22 -255 -22 l-239 0 0 66 0 65 241 -3 c225 -3 242 -4 255 -22z"/>
<path d="M9530 920 l0 -350 120 0 120 0 0 350 0 350 -120 0 -120 0 0 -350z"/>
</g>
</svg>
