<?xml version="1.0" standalone="no"?>
<!DOCTYPE svg PUBLIC "-//W3C//DTD SVG 20010904//EN"
 "http://www.w3.org/TR/2001/REC-SVG-20010904/DTD/svg10.dtd">
<svg version="1.0" xmlns="http://www.w3.org/2000/svg"
 width="768.000000pt" height="325.000000pt" viewBox="0 0 768.000000 325.000000"
 preserveAspectRatio="xMidYMid meet">

<g transform="translate(0.000000,325.000000) scale(0.100000,-0.100000)"
fill="#000000" stroke="none">
<path d="M1935 2753 c-60 -52 -144 -122 -185 -156 -41 -34 -77 -64 -80 -68 -3
-4 -25 -23 -48 -43 l-44 -36 116 0 116 0 0 -545 0 -545 76 0 c74 0 135 17 152
44 4 6 9 243 12 526 l5 515 96 5 c88 5 99 7 118 30 13 16 20 40 21 67 l0 42
-117 3 -118 3 -5 126 -5 126 -110 -94z"/>
<path d="M940 2565 c-185 -52 -300 -186 -300 -349 0 -140 70 -264 181 -321 62
-32 155 -55 221 -55 128 0 226 -36 249 -94 17 -38 14 -116 -6 -162 -47 -112
-164 -156 -318 -120 -86 20 -158 73 -219 161 -51 74 -75 91 -115 83 -42 -9 1
-144 69 -219 102 -111 243 -169 409 -169 286 0 474 192 430 438 -16 89 -61
164 -134 222 -75 61 -155 88 -294 99 -133 11 -174 30 -204 95 -76 168 96 308
309 252 86 -23 135 -64 178 -148 28 -56 62 -81 101 -76 25 3 28 7 26 36 -5
119 -111 256 -238 307 -59 24 -87 29 -180 31 -77 3 -126 -1 -165 -11z"/>
<path d="M2825 2574 c-181 -48 -273 -99 -370 -207 -66 -73 -131 -197 -151
-288 -61 -285 74 -565 336 -699 198 -101 508 -77 671 51 l37 29 23 -34 c26
-39 70 -57 144 -59 l50 -2 3 368 c2 299 -1 380 -13 432 -44 191 -188 326 -410
387 -69 19 -277 33 -320 22z m179 -149 c141 -34 258 -166 296 -337 8 -33 11
-102 8 -178 -4 -109 -8 -133 -32 -189 -61 -141 -160 -230 -283 -256 -119 -25
-235 6 -309 82 -74 75 -118 187 -129 323 -21 276 95 503 283 555 62 17 95 17
166 0z"/>
<path d="M4330 2573 c-76 -12 -172 -39 -224 -65 -33 -15 -61 -28 -62 -28 -2 0
-4 17 -6 38 -3 35 -5 37 -41 40 -66 6 -141 -16 -173 -49 l-29 -30 -3 -561 -2
-560 95 4 c88 3 97 5 122 31 l28 27 5 378 c5 361 6 379 28 433 41 103 127 177
228 194 90 16 134 57 134 125 0 28 -2 30 -37 29 -21 -1 -49 -3 -63 -6z"/>
<path d="M4841 2570 c-169 -36 -300 -115 -395 -239 -220 -286 -160 -688 134
-903 317 -231 783 -104 943 257 156 355 -31 758 -403 867 -76 22 -216 31 -279
18z m177 -142 c179 -44 302 -243 302 -488 0 -204 -95 -387 -238 -457 -79 -39
-192 -40 -267 -3 -61 30 -140 109 -178 178 -61 113 -83 291 -52 425 40 174
133 292 268 338 61 22 101 23 165 7z"/>
<path d="M6228 2570 c-67 -12 -143 -38 -191 -66 -23 -13 -45 -24 -49 -24 -5 0
-8 19 -8 41 l0 42 -74 -6 c-40 -3 -87 -12 -104 -21 -65 -34 -62 -5 -62 -618
l0 -558 76 0 c74 0 135 17 152 44 4 6 10 182 13 391 6 414 9 436 67 520 70
101 220 148 360 113 94 -23 154 -83 192 -191 19 -53 20 -83 20 -467 l0 -410
71 0 c81 0 131 19 148 56 15 34 15 683 0 773 -32 186 -145 307 -337 362 -76
22 -209 31 -274 19z"/>
<path d="M7010 2573 c-8 -2 -21 -7 -29 -9 -8 -2 -12 -7 -9 -10 3 -2 18 0 33 6
61 23 137 -22 156 -92 9 -35 7 -46 -14 -89 -13 -26 -19 -45 -14 -42 5 3 18 25
29 49 15 36 17 51 9 82 -20 73 -100 126 -161 105z"/>
<path d="M6934 2528 l-19 -23 23 19 c21 18 27 26 19 26 -2 0 -12 -10 -23 -22z"/>
<path d="M6981 2433 c1 -63 4 -76 8 -48 5 34 10 40 32 43 21 3 28 -4 44 -38
10 -22 22 -40 28 -40 5 0 -1 17 -13 37 -18 31 -19 39 -8 48 22 15 29 44 18 66
-8 15 -22 19 -60 19 l-50 0 1 -87z m103 62 c8 -23 -4 -45 -29 -51 -42 -10 -60
-1 -63 34 -3 32 -3 32 41 32 31 0 47 -5 51 -15z"/>
<path d="M6906 2484 c-20 -52 2 -122 51 -158 34 -25 112 -32 138 -13 18 14 16
15 -21 5 -51 -14 -85 -5 -127 31 -29 27 -32 34 -32 90 0 34 -1 61 -1 61 -1 0
-5 -7 -8 -16z"/>
<path d="M1728 894 c-33 -17 -58 -62 -58 -103 0 -50 35 -79 125 -101 87 -21
105 -36 105 -86 0 -47 -38 -74 -105 -74 -38 0 -60 6 -79 21 -14 11 -30 17 -36
14 -37 -23 36 -65 113 -65 69 0 111 19 132 60 19 37 19 63 0 100 -19 36 -34
45 -110 60 -85 17 -105 32 -105 80 0 30 6 43 26 59 32 25 101 28 130 6 25 -19
44 -19 44 0 0 39 -126 60 -182 29z"/>
<path d="M2460 727 c0 -209 5 -227 66 -227 24 0 34 5 34 15 0 9 -9 15 -23 15
-44 0 -47 14 -47 202 0 152 -2 178 -15 178 -13 0 -15 -27 -15 -183z"/>
<path d="M2690 890 c0 -13 7 -20 20 -20 13 0 20 7 20 20 0 13 -7 20 -20 20
-13 0 -20 -7 -20 -20z"/>
<path d="M3070 830 c0 -80 -6 -93 -30 -65 -8 9 -30 15 -57 15 -56 0 -89 -32
-99 -96 -9 -64 3 -128 31 -158 19 -21 33 -26 69 -26 26 0 51 6 60 15 19 19 26
19 26 0 0 -8 7 -15 15 -15 13 0 15 29 15 205 0 176 -2 205 -15 205 -12 0 -15
-16 -15 -80z m-26 -99 c33 -37 33 -152 0 -186 -24 -24 -90 -20 -108 7 -22 31
-21 140 0 173 21 32 82 35 108 6z"/>
<path d="M3513 890 c-42 -25 -62 -85 -43 -130 17 -41 41 -55 115 -70 85 -17
105 -32 105 -80 0 -30 -6 -43 -26 -59 -37 -29 -121 -29 -158 0 -22 17 -29 19
-42 8 -13 -11 -10 -16 23 -36 28 -17 53 -23 96 -23 94 0 147 40 147 111 0 47
-31 86 -78 98 -20 5 -59 15 -85 22 -71 18 -91 76 -42 124 28 29 89 34 134 10
27 -13 41 -11 41 6 0 5 -13 15 -30 24 -41 21 -118 19 -157 -5z"/>
<path d="M4614 902 c-19 -13 -34 -50 -34 -86 0 -25 -4 -36 -15 -36 -8 0 -15
-7 -15 -15 0 -8 7 -15 15 -15 13 0 15 -21 15 -125 0 -118 1 -125 20 -125 19 0
20 7 20 125 l0 125 30 0 c20 0 30 5 30 15 0 10 -10 15 -31 15 -30 0 -30 1 -27
48 3 43 5 47 31 50 15 2 27 9 27 18 0 15 -46 20 -66 6z"/>
<path d="M2124 762 c-34 -27 -44 -56 -44 -122 0 -98 33 -140 110 -140 51 0 57
3 88 44 18 23 22 42 22 97 0 62 -3 71 -31 104 -27 31 -37 35 -78 35 -28 0 -54
-7 -67 -18z m125 -38 c16 -20 21 -41 21 -84 0 -76 -25 -110 -79 -110 -53 0
-74 26 -78 98 -6 81 20 122 76 122 31 0 44 -6 60 -26z"/>
<path d="M2690 640 c0 -133 1 -140 20 -140 19 0 20 7 20 140 0 133 -1 140 -20
140 -19 0 -20 -7 -20 -140z"/>
<path d="M3880 666 c0 -106 1 -115 25 -140 19 -21 33 -26 71 -26 30 0 54 6 66
17 17 15 18 15 18 0 0 -10 8 -17 20 -17 19 0 20 7 20 140 0 133 -1 140 -20
140 -19 0 -20 -7 -20 -103 0 -127 -10 -147 -75 -147 -62 0 -75 27 -75 155 0
78 -3 95 -15 95 -12 0 -15 -19 -15 -114z"/>
<path d="M4270 640 c0 -118 2 -140 15 -140 12 0 15 18 15 99 0 85 3 102 21
125 18 23 29 27 63 25 65 -3 70 -1 56 16 -7 9 -29 15 -55 15 -26 0 -48 -6 -55
-15 -7 -8 -16 -15 -21 -15 -5 0 -9 7 -9 15 0 8 -7 15 -15 15 -13 0 -15 -22
-15 -140z"/>
<path d="M4816 765 c-23 -18 -12 -39 14 -25 27 15 106 12 119 -3 6 -8 14 -28
17 -44 l6 -31 -71 -4 c-57 -3 -75 -8 -96 -28 -33 -31 -34 -78 -2 -108 26 -25
103 -30 140 -11 16 9 22 9 25 0 2 -6 10 -11 18 -11 11 0 14 22 14 114 0 106
-1 115 -25 140 -21 22 -32 26 -82 26 -34 -1 -66 -6 -77 -15z m151 -171 c-9
-54 -22 -64 -83 -64 -48 0 -56 3 -66 25 -9 19 -8 29 6 50 15 23 23 25 83 25
l66 0 -6 -36z"/>
<path d="M5200 753 c-60 -53 -60 -173 -1 -225 25 -22 41 -28 79 -28 54 1 88
20 78 46 -6 15 -8 16 -24 0 -28 -25 -88 -21 -117 9 -21 20 -25 34 -25 85 0 51
4 65 25 85 29 29 95 35 115 10 9 -11 16 -13 23 -6 7 7 5 17 -8 31 -29 32 -106
28 -145 -7z"/>
<path d="M5541 764 c-13 -9 -29 -32 -37 -50 -28 -68 -10 -164 37 -198 49 -34
189 -7 158 30 -9 11 -13 11 -26 -1 -22 -23 -99 -19 -123 5 -11 11 -20 26 -20
34 0 8 -3 21 -6 30 -5 14 7 16 96 16 l102 0 -7 43 c-9 52 -19 72 -47 91 -29
21 -97 20 -127 0z m119 -34 c11 -11 20 -31 20 -45 0 -25 -1 -25 -79 -25 l-80
0 9 31 c5 17 14 37 21 45 18 21 85 18 109 -6z"/>
<path d="M5886 759 c-60 -47 -17 -129 68 -129 72 0 109 -46 68 -83 -21 -20
-102 -23 -134 -6 -31 17 -45 -5 -17 -25 16 -11 45 -16 87 -16 53 0 67 4 87 25
17 16 25 35 25 59 0 45 -30 66 -107 75 -65 7 -83 25 -65 65 10 23 17 26 66 26
30 0 58 -5 61 -10 5 -8 12 -7 22 1 12 11 11 14 -9 25 -38 21 -121 17 -152 -7z"/>
</g>
</svg>
