<?xml version="1.0" standalone="no"?>
<!DOCTYPE svg PUBLIC "-//W3C//DTD SVG 20010904//EN"
 "http://www.w3.org/TR/2001/REC-SVG-20010904/DTD/svg10.dtd">
<svg version="1.0" xmlns="http://www.w3.org/2000/svg"
 width="800.000000pt" height="420.000000pt" viewBox="0 0 800.000000 420.000000"
 preserveAspectRatio="xMidYMid meet">

<g transform="translate(0.000000,420.000000) scale(0.100000,-0.100000)"
fill="#000000" stroke="none">
<path d="M4220 2563 c-118 -41 -183 -127 -183 -242 -1 -77 16 -115 69 -159 40
-33 65 -44 236 -96 91 -28 122 -42 134 -61 15 -23 15 -27 0 -50 -47 -71 -187
-54 -212 25 l-12 35 -126 3 c-144 3 -138 7 -110 -87 34 -116 150 -188 316
-198 109 -7 194 9 272 50 98 52 146 147 133 260 -13 102 -88 167 -241 207
-161 42 -187 51 -206 70 -25 25 -25 35 0 60 14 14 33 20 65 20 58 0 91 -16
106 -51 l11 -29 114 0 114 0 0 33 c0 50 -47 134 -93 168 -22 16 -63 36 -90 44
-68 20 -237 19 -297 -2z"/>
<path d="M7218 2562 c-81 -50 -71 -175 19 -217 48 -23 98 -12 140 30 29 29 33
39 33 85 0 46 -4 56 -34 86 -29 29 -40 34 -82 34 -28 0 -61 -8 -76 -18z m143
-31 c55 -55 31 -146 -45 -171 -100 -33 -176 101 -97 172 44 40 101 39 142 -1z"/>
<path d="M7230 2461 c0 -56 3 -71 15 -71 10 0 15 10 15 30 0 19 5 30 14 30 30
0 46 -13 46 -36 0 -15 6 -24 15 -24 17 0 21 45 5 55 -6 4 -5 13 3 25 20 34 -2
55 -62 58 l-51 3 0 -70z m88 27 c3 -14 -3 -18 -27 -18 -25 0 -31 4 -31 21 0
16 5 20 27 17 17 -2 29 -10 31 -20z"/>
<path d="M460 2465 l0 -105 110 0 110 0 0 -305 0 -305 130 0 130 0 0 305 0
305 110 0 110 0 0 105 0 105 -350 0 -350 0 0 -105z"/>
<path d="M2370 2160 l0 -410 109 0 109 0 4 178 c2 151 6 182 21 205 22 33 59
49 94 41 44 -11 53 -54 53 -249 l0 -175 115 0 115 0 0 208 c0 114 -5 227 -11
251 -22 98 -90 146 -204 145 -68 0 -142 -25 -160 -54 -19 -30 -25 2 -25 130
l0 140 -110 0 -110 0 0 -410z"/>
<path d="M3740 2490 l0 -80 110 0 110 0 0 80 0 80 -110 0 -110 0 0 -80z"/>
<path d="M4830 2430 l0 -90 -50 0 -50 0 0 -70 0 -70 50 0 50 0 0 -172 c0 -145
3 -179 18 -208 33 -66 112 -89 256 -75 l76 7 0 84 0 84 -48 0 c-26 0 -53 5
-60 12 -8 8 -12 54 -12 140 l0 128 60 0 60 0 0 70 0 70 -60 0 -60 0 0 90 0 90
-115 0 -115 0 0 -90z"/>
<path d="M1263 2350 c-58 -12 -97 -34 -145 -82 -64 -64 -83 -116 -83 -228 1
-83 4 -101 27 -145 34 -65 69 -98 143 -132 52 -23 73 -27 150 -27 77 0 99 4
153 28 63 29 108 71 137 126 l16 30 -107 0 c-83 0 -111 -4 -124 -15 -25 -22
-84 -30 -119 -15 -32 13 -54 40 -63 78 l-6 22 214 0 214 0 0 38 c0 55 -23 143
-51 192 -28 51 -94 105 -147 120 -54 15 -161 20 -209 10z m156 -166 c19 -16
31 -35 31 -50 0 -24 -1 -24 -100 -24 -89 0 -100 2 -100 18 0 24 28 62 54 72
41 17 83 11 115 -16z"/>
<path d="M1941 2350 c-228 -48 -320 -339 -161 -513 78 -85 186 -120 305 -98
116 22 198 85 229 179 26 74 29 72 -94 72 -101 0 -110 -2 -110 -19 0 -10 -12
-30 -26 -45 -35 -34 -83 -35 -121 -2 -25 21 -28 31 -31 100 -6 113 23 166 91
166 38 0 66 -16 77 -46 9 -23 12 -24 116 -24 l107 0 -6 37 c-4 20 -19 57 -35
82 -53 88 -210 138 -341 111z"/>
<path d="M3381 2346 c-24 -8 -59 -29 -77 -47 l-34 -33 0 37 0 37 -110 0 -110
0 0 -295 0 -295 115 0 115 0 0 169 c0 99 5 181 11 201 21 60 110 74 138 21 7
-12 11 -94 11 -205 l0 -186 115 0 115 0 0 223 c0 122 -4 238 -10 256 -11 39
-51 86 -92 107 -41 21 -136 26 -187 10z"/>
<path d="M5419 2347 c-90 -20 -153 -69 -197 -152 -24 -45 -27 -61 -27 -150 0
-89 3 -105 27 -151 46 -88 113 -135 218 -154 154 -28 302 32 359 145 38 76 48
160 28 241 -36 146 -126 218 -289 229 -35 3 -88 -1 -119 -8z m148 -172 c12 -9
27 -32 33 -53 21 -79 6 -180 -33 -207 -32 -23 -81 -19 -114 9 -27 23 -28 27
-28 121 0 94 1 98 28 121 33 28 82 32 114 9z"/>
<path d="M6225 2351 c-39 -10 -75 -29 -102 -54 l-23 -20 0 31 0 32 -110 0
-110 0 0 -295 0 -295 115 0 115 0 0 184 c0 180 1 186 24 212 18 21 32 28 60
28 67 0 71 -10 74 -229 l3 -195 115 0 116 0 -4 239 -3 239 -30 43 c-16 23 -47
51 -67 61 -41 22 -128 31 -173 19z"/>
<path d="M6758 2347 c-134 -38 -218 -157 -218 -307 0 -130 59 -224 172 -275
54 -25 76 -29 154 -29 85 -1 97 2 160 34 67 34 134 102 134 136 0 22 -197 20
-221 -2 -23 -20 -87 -29 -121 -15 -28 10 -51 40 -63 79 l-6 22 215 0 216 0 0
23 c0 108 -47 227 -109 278 -68 56 -218 83 -313 56z m173 -166 c16 -16 29 -39
29 -50 0 -20 -5 -21 -100 -21 -89 0 -100 2 -100 18 0 24 28 62 54 72 44 18 86
11 117 -19z"/>
<path d="M3740 2045 l0 -295 110 0 110 0 0 295 0 295 -110 0 -110 0 0 -295z"/>
</g>
</svg>
